o egg
v 0.576376 -0.530715 0.406076
v -0.261695 -0.273638 2.421044
v -0.338385 -0.618081 0.301594
v 0.344783 -0.476662 0.179213
v 0.738901 -0.554597 0.851373
v 0.259229 -0.749458 1.789248
v -0.749012 0.000000 0.345463
v -0.565584 -0.309610 0.219976
v -0.750040 -0.307643 1.756905
v -0.649713 0.000000 2.110892
v -0.586147 0.719905 0.922578
v -0.338385 0.618081 0.301594
v -0.161771 0.839258 1.597161
v 0.716253 -0.190017 0.349529
v 0.766685 0.000000 0.385076
v 0.767203 0.000000 1.819806
v -0.368451 -0.131283 2.408964
v -0.138186 0.000000 2.573492
v -0.261695 0.273638 2.421044
v 0.021803 0.302010 2.483145
v -0.531319 0.632811 1.722736
v -0.466996 0.436209 2.122998
v 0.345574 0.417873 2.261373
v 0.585583 0.593850 1.704082
v 0.585583 -0.593850 1.704082
v 0.345574 -0.417873 2.261373
v -0.466996 -0.436209 2.122998
v -0.531319 -0.632811 1.722736
v 0.643852 -0.678234 1.207545
v 0.407887 -0.816669 0.790577
v 0.275362 -0.874443 1.220593
v 0.314041 -0.744365 0.474117
v 0.006421 -0.713367 0.317223
v -0.097239 -0.837331 0.577822
v -0.192365 -0.893756 0.922486
v -0.530866 -0.663793 0.533101
v -0.586147 -0.719905 0.922578
v -0.686138 -0.618643 1.287263
v -0.769986 -0.476939 0.743026
v -0.774341 -0.158838 0.453340
v -0.886029 -0.138191 0.828207
v -0.871314 -0.274014 1.242303
v -0.912240 0.000000 1.105893
v -0.774341 0.158838 0.453340
v -0.886029 0.138191 0.828207
v -0.871314 0.274014 1.242303
v -0.769986 0.476939 0.743026
v -0.686138 0.618643 1.287263
v -0.530866 0.663793 0.533101
v -0.401107 0.811372 1.348090
v -0.192365 0.893756 0.922486
v -0.097239 0.837331 0.577822
v 0.006421 0.713367 0.317223
v 0.314041 0.744365 0.474117
v 0.275362 0.874443 1.220593
v 0.407887 0.816669 0.790577
v 0.643852 0.678234 1.207545
v 0.576376 0.530715 0.406076
v 0.738901 0.554597 0.851373
v 0.861342 0.304634 1.298511
v 0.819219 0.296133 0.641024
v 0.889219 0.215215 1.012898
v 0.716253 0.190017 0.349529
v 0.912240 0.000000 1.105893
v 0.889219 -0.215215 1.012898
v 0.819219 -0.296133 0.641024
v -0.565584 0.309610 0.219976
v -0.218172 0.000000 0.007761
v -0.287324 0.208298 0.054143
v -0.287324 -0.208298 0.054143
v -0.075147 -0.505464 0.126104
v 0.054686 0.204294 0.014293
v -0.075147 0.505464 0.126104
v 0.054686 -0.204294 0.014293
v 0.360963 0.000000 0.055503
v 0.411204 -0.158260 0.089652
v 0.411204 0.158260 0.089652
v 0.344783 0.476662 0.179213
v 0.259229 0.749458 1.789248
v 0.114874 0.618533 2.106022
v -0.214388 0.542541 2.192446
v -0.069372 0.119628 2.578901
v -0.069372 -0.119628 2.578901
v 0.021803 -0.302010 2.483145
v 0.285184 0.000000 2.518779
v 0.135710 -0.138175 2.549922
v 0.135710 0.138175 2.549922
v -0.401107 -0.811372 1.348090
v -0.161771 -0.839258 1.597161
v 0.114874 -0.618533 2.106022
v -0.214388 -0.542541 2.192446
v 0.779205 -0.243154 1.716303
v 0.861342 -0.304634 1.298511
v 0.779205 0.243154 1.716303
v 0.512504 -0.370878 2.121794
v 0.571575 -0.160924 2.166344
v 0.512504 0.370878 2.121794
v 0.571575 0.160924 2.166344
v 0.318596 0.141723 2.443420
v 0.318596 -0.141723 2.443420
v -0.750040 0.307643 1.756905
v -0.639123 -0.160946 2.053431
v -0.639123 0.160946 2.053431
v -0.368451 0.131283 2.408964
vt 0.382671 0.209175
vt 0.311941 0.222435
vt 0.348227 0.144738
vt 0.329912 0.310005
vt 0.254536 0.179339
vt 0.233458 0.253140
vt 0.216923 0.343256
vt 0.296269 0.446700
vt 0.171615 0.180875
vt 0.141141 0.246703
vt 0.175625 0.478748
vt 0.141432 0.344050
vt 0.307519 0.624786
vt 0.374865 0.430566
vt 0.220388 0.568740
vt 0.143697 0.607084
vt 0.116427 0.458518
vt 0.079544 0.162472
vt 0.225289 0.119744
vt 0.087905 0.294779
vt 0.029945 0.311023
vt 0.031337 0.220524
vt 0.000000 0.398105
vt 0.000000 0.192143
vt 1.000000 0.398105
vt 0.970055 0.311023
vt 1.000000 0.192143
vt 0.912095 0.294779
vt 0.968663 0.220524
vt 0.858859 0.246703
vt 0.920456 0.162472
vt 0.883573 0.458518
vt 0.858568 0.344050
vt 0.064509 0.619250
vt 0.044347 0.436801
vt 0.935491 0.619250
vt 0.955653 0.436800
vt 0.824375 0.478748
vt 0.783077 0.343256
vt 0.766542 0.253140
vt 0.828385 0.180875
vt 0.745464 0.179339
vt 0.670088 0.310005
vt 0.703731 0.446700
vt 0.688059 0.222434
vt 0.651773 0.144738
vt 0.617329 0.209175
vt 0.856303 0.607084
vt 0.779612 0.568740
vt 0.692481 0.624786
vt 0.625135 0.430566
vt 0.774711 0.119744
vt 0.555276 0.476868
vt 0.600812 0.320586
vt 0.558879 0.272700
vt 0.543292 0.191810
vt 0.536147 0.370345
vt 0.500000 0.398105
vt 0.500000 0.201892
vt 0.441121 0.272700
vt 0.463853 0.370345
vt 0.399188 0.320586
vt 0.456708 0.191810
vt 0.444724 0.476868
vt 0.627085 0.603198
vt 0.547006 0.614425
vt 0.452994 0.614425
vt 0.372915 0.603198
vt 0.955051 0.052593
vt 0.082109 0.052593
vt 0.095339 0.082971
vt 0.286169 0.054652
vt 0.713831 0.054652
vt 0.904661 0.082971
vt 0.500000 0.082249
vt 0.439618 0.103703
vt 0.560382 0.103703
vt 0.720740 0.763077
vt 0.645830 0.816977
vt 0.882457 0.764998
vt 0.810100 0.794266
vt 0.745753 0.908355
vt 0.872380 0.882060
vt 0.949203 0.881427
vt 0.822483 0.960929
vt 1.001281 0.962929
vt 0.621096 0.941425
vt 0.177517 0.960929
vt 0.500000 0.921430
vt 0.001281 0.962929
vt 0.560913 0.893658
vt 0.354170 0.816977
vt 0.439087 0.893658
vt 0.378904 0.941425
vt 0.189900 0.794266
vt 0.279260 0.763077
vt 0.254247 0.908355
vt 0.127621 0.882060
vt 0.117543 0.764998
vt 0.399965 0.765980
vt 0.600035 0.765980
vt 0.542589 0.787328
vt 0.500000 0.653187
vt 0.457411 0.787328
vt 1.000000 0.756529
vt 0.965532 0.747670
vt 0.034468 0.747670
vt 0.050797 0.881427
vt 0.000000 0.756529
vn 0.6385 -0.5811 -0.5045
vn 0.3196 -0.8417 -0.4351
vn 0.3619 -0.5104 -0.7801
vn 0.3956 -0.9019 -0.1734
vn 0.0197 -0.8024 -0.5964
vn -0.0960 -0.9462 -0.3090
vn -0.1682 -0.9821 -0.0846
vn 0.2503 -0.9646 0.0826
vn -0.3579 -0.6845 -0.6351
vn -0.5641 -0.7321 -0.3818
vn -0.4086 -0.9039 0.1262
vn -0.5953 -0.7988 -0.0861
vn 0.2814 -0.8947 0.3469
vn 0.6782 -0.7291 0.0918
vn -0.1458 -0.9524 0.2676
vn -0.5893 -0.7355 0.3343
vn -0.7544 -0.6466 0.1130
vn -0.6088 -0.3173 -0.7271
vn -0.0789 -0.5239 -0.8481
vn -0.8520 -0.4771 -0.2154
vn -0.9840 -0.0582 -0.1684
vn -0.8896 -0.2276 -0.3958
vn -0.9990 0.0000 0.0450
vn -0.8124 0.0000 -0.5830
vn -0.9840 0.0582 -0.1684
vn -0.8520 0.4771 -0.2154
vn -0.8896 0.2276 -0.3958
vn -0.5641 0.7321 -0.3818
vn -0.6088 0.3173 -0.7271
vn -0.7544 0.6466 0.1130
vn -0.5953 0.7988 -0.0861
vn -0.9021 -0.2940 0.3159
vn -0.9583 -0.2637 0.1100
vn -0.9021 0.2940 0.3159
vn -0.9583 0.2637 0.1100
vn -0.4086 0.9039 0.1262
vn -0.1682 0.9821 -0.0846
vn -0.0960 0.9462 -0.3090
vn -0.3579 0.6845 -0.6351
vn 0.0197 0.8024 -0.5964
vn 0.3956 0.9019 -0.1734
vn 0.2503 0.9646 0.0826
vn 0.3196 0.8417 -0.4351
vn 0.3619 0.5104 -0.7801
vn 0.6385 0.5811 -0.5045
vn -0.5893 0.7355 0.3343
vn -0.1458 0.9524 0.2676
vn 0.2814 0.8947 0.3469
vn 0.6782 0.7291 0.0918
vn -0.0789 0.5239 -0.8481
vn 0.9423 0.3053 0.1373
vn 0.7960 0.5885 -0.1414
vn 0.9244 0.2720 -0.2673
vn 0.7638 0.2257 -0.6047
vn 0.9768 0.2011 -0.0736
vn 0.9999 0.0000 0.0111
vn 0.8589 0.0000 -0.5120
vn 0.9244 -0.2720 -0.2673
vn 0.9768 -0.2011 -0.0736
vn 0.7960 -0.5885 -0.1414
vn 0.7638 -0.2257 -0.6047
vn 0.9423 -0.3053 0.1373
vn 0.6647 0.6804 0.3085
vn 0.9148 0.2636 0.3059
vn 0.9148 -0.2636 0.3059
vn 0.6647 -0.6804 0.3085
vn -0.2392 0.0000 -0.9709
vn -0.3259 -0.2226 -0.9188
vn 0.0709 -0.1829 -0.9806
vn 0.0709 0.1829 -0.9806
vn -0.3259 0.2226 -0.9188
vn 0.3667 0.0000 -0.9303
vn 0.4640 -0.1746 -0.8684
vn 0.4640 0.1746 -0.8684
vn 0.1226 0.8401 0.5283
vn 0.4628 0.6156 0.6378
vn -0.6263 0.5632 0.5390
vn -0.2512 0.7801 0.5730
vn 0.0429 0.6122 0.7895
vn -0.4255 0.4935 0.7585
vn -0.6537 0.1103 0.7486
vn -0.1230 0.2230 0.9670
vn -0.3178 0.0000 0.9481
vn 0.2606 0.2673 0.9277
vn -0.1230 -0.2230 0.9670
vn 0.5236 0.0000 0.8519
vn 0.5886 0.3310 0.7376
vn 0.4628 -0.6156 0.6378
vn 0.5886 -0.3310 0.7376
vn 0.2606 -0.2673 0.9277
vn -0.2512 -0.7801 0.5730
vn 0.1226 -0.8401 0.5283
vn 0.0429 -0.6122 0.7895
vn -0.4255 -0.4935 0.7585
vn -0.6263 -0.5632 0.5390
vn 0.7070 -0.4838 0.5159
vn 0.7070 0.4838 0.5159
vn 0.8147 0.0978 0.5715
vn 0.9293 0.0000 0.3692
vn 0.8147 -0.0978 0.5715
vn -0.8520 0.0000 0.5234
vn -0.8119 0.2833 0.5104
vn -0.8119 -0.2833 0.5104
vn -0.6537 -0.1103 0.7486
usemtl models/dogijk/eggshad
s 1
f 1/1/1 32/2/2 4/3/3
f 1/1/1 30/4/4 32/2/2
f 4/3/3 32/2/2 33/5/5
f 32/2/2 34/6/6 33/5/5
f 32/2/2 30/4/4 34/6/6
f 30/4/4 35/7/7 34/6/6
f 30/4/4 31/8/8 35/7/7
f 34/6/6 3/9/9 33/5/5
f 35/7/7 36/10/10 34/6/6
f 88/11/11 37/12/12 35/7/7
f 6/13/13 31/8/8 29/14/14
f 6/13/13 89/15/15 31/8/8
f 88/11/11 28/16/16 38/17/17
f 36/10/10 8/18/18 3/9/9
f 33/5/5 71/19/19 4/3/3
f 37/12/12 38/17/17 39/20/20
f 36/10/10 39/20/20 8/18/18
f 39/20/20 41/21/21 40/22/22
f 41/21/21 43/23/23 7/24/24
f 43/25/23 45/26/25 7/27/24
f 45/26/25 47/28/26 44/29/27
f 47/28/26 49/30/28 67/31/29
f 48/32/30 11/33/31 47/28/26
f 36/10/10 37/12/12 39/20/20
f 9/34/32 42/35/33 38/17/17
f 9/34/32 43/23/23 42/35/33
f 43/25/23 101/36/34 46/37/35
f 46/37/35 101/36/34 48/32/30
f 11/33/31 49/30/28 47/28/26
f 11/33/31 50/38/36 51/39/37
f 49/30/28 51/39/37 52/40/38
f 12/41/39 52/40/38 53/42/40
f 51/39/37 56/43/41 52/40/38
f 55/44/42 56/43/41 51/39/37
f 52/40/38 54/45/43 53/42/40
f 56/43/41 54/45/43 52/40/38
f 54/45/43 78/46/44 53/42/40
f 56/43/41 58/47/45 54/45/43
f 54/45/43 58/47/45 78/46/44
f 67/31/29 49/30/28 12/41/39
f 21/48/46 50/38/36 48/32/30
f 13/49/47 79/50/48 55/44/42
f 55/44/42 79/50/48 57/51/49
f 73/52/50 53/42/40 78/46/44
f 57/51/49 60/53/51 59/54/52
f 58/47/45 61/55/53 63/56/54
f 59/54/52 62/57/55 61/55/53
f 61/55/53 64/58/56 15/59/57
f 64/58/56 66/60/58 15/59/57
f 65/61/59 5/62/60 66/60/58
f 66/60/58 1/1/1 14/63/61
f 93/64/62 29/14/14 5/62/60
f 24/65/63 60/53/51 57/51/49
f 94/66/64 64/58/56 60/53/51
f 64/58/56 92/67/65 93/64/62
f 93/64/62 25/68/66 29/14/14
f 67/31/29 68/69/67 7/27/24
f 8/18/18 68/70/67 70/71/68
f 8/18/18 70/71/68 71/19/19
f 12/41/39 73/52/50 67/31/29
f 70/71/68 68/70/67 74/72/69
f 73/52/50 72/73/70 69/74/71
f 74/72/69 4/3/3 71/19/19
f 68/69/67 72/73/70 75/75/72
f 75/75/72 76/76/73 74/72/69
f 72/73/70 78/46/44 77/77/74
f 75/75/72 77/77/74 15/59/57
f 78/46/44 58/47/45 63/56/54
f 15/59/57 14/63/61 76/76/73
f 76/76/73 14/63/61 4/3/3
f 50/38/36 21/48/46 13/49/47
f 79/50/48 13/49/47 80/78/75
f 79/50/48 23/79/76 24/65/63
f 21/48/46 22/80/77 81/81/78
f 80/78/75 23/79/76 79/50/48
f 80/78/75 81/81/78 20/82/79
f 81/81/78 19/83/80 20/82/79
f 104/84/81 82/85/82 19/83/80
f 18/86/83 82/85/82 104/84/81
f 82/85/82 87/87/84 20/82/79
f 83/88/85 85/89/86 18/90/83
f 82/85/82 85/89/86 87/87/84
f 87/87/84 85/89/86 99/91/87
f 26/92/88 100/93/89 86/94/90
f 20/82/79 87/87/84 23/79/76
f 82/85/82 20/82/79 19/83/80
f 89/15/15 91/95/91 28/16/16
f 90/96/92 91/95/91 89/15/15
f 90/96/92 26/92/88 84/97/93
f 91/95/91 2/98/94 27/99/95
f 92/67/65 95/100/96 25/68/66
f 94/66/64 97/101/97 98/102/98
f 16/103/99 96/104/100 92/67/65
f 16/103/99 98/102/98 85/89/86
f 96/104/100 100/93/89 95/100/96
f 97/101/97 23/79/76 99/91/87
f 85/89/86 100/93/89 96/104/100
f 95/100/96 26/92/88 25/68/66
f 101/36/34 22/80/77 21/48/46
f 10/105/101 103/106/102 101/36/34
f 103/106/102 22/80/77 101/36/34
f 10/105/101 104/84/81 103/106/102
f 102/107/103 27/99/95 17/108/104
f 104/84/81 19/83/80 22/80/77
f 10/109/101 17/108/104 18/90/83
f 1/1/1 5/62/60 30/4/4
f 5/62/60 29/14/14 30/4/4
f 30/4/4 29/14/14 31/8/8
f 31/8/8 89/15/15 35/7/7
f 89/15/15 88/11/11 35/7/7
f 34/6/6 36/10/10 3/9/9
f 35/7/7 37/12/12 36/10/10
f 88/11/11 38/17/17 37/12/12
f 25/68/66 6/13/13 29/14/14
f 71/19/19 33/5/5 3/9/9
f 39/20/20 38/17/17 42/35/33
f 8/18/18 39/20/20 40/22/22
f 39/20/20 42/35/33 41/21/21
f 8/18/18 40/22/22 7/24/24
f 40/22/22 41/21/21 7/24/24
f 41/21/21 42/35/33 43/23/23
f 7/27/24 44/29/27 67/31/29
f 7/27/24 45/26/25 44/29/27
f 43/25/23 46/37/35 45/26/25
f 45/26/25 46/37/35 47/28/26
f 44/29/27 47/28/26 67/31/29
f 46/37/35 48/32/30 47/28/26
f 28/16/16 9/34/32 38/17/17
f 9/34/32 10/109/101 43/23/23
f 43/25/23 10/105/101 101/36/34
f 48/32/30 101/36/34 21/48/46
f 11/33/31 48/32/30 50/38/36
f 49/30/28 11/33/31 51/39/37
f 12/41/39 49/30/28 52/40/38
f 51/39/37 50/38/36 13/49/47
f 51/39/37 13/49/47 55/44/42
f 55/44/42 57/51/49 56/43/41
f 56/43/41 59/54/52 58/47/45
f 56/43/41 57/51/49 59/54/52
f 57/51/49 79/50/48 24/65/63
f 12/41/39 53/42/40 73/52/50
f 58/47/45 59/54/52 61/55/53
f 59/54/52 60/53/51 62/57/55
f 63/56/54 61/55/53 15/59/57
f 61/55/53 62/57/55 64/58/56
f 62/57/55 60/53/51 64/58/56
f 15/59/57 66/60/58 14/63/61
f 64/58/56 65/61/59 66/60/58
f 64/58/56 93/64/62 65/61/59
f 65/61/59 93/64/62 5/62/60
f 66/60/58 5/62/60 1/1/1
f 24/65/63 94/66/64 60/53/51
f 94/66/64 16/103/99 64/58/56
f 64/58/56 16/103/99 92/67/65
f 93/64/62 92/67/65 25/68/66
f 8/18/18 7/24/24 68/70/67
f 67/31/29 69/74/71 68/69/67
f 3/9/9 8/18/18 71/19/19
f 67/31/29 73/52/50 69/74/71
f 71/19/19 70/71/68 74/72/69
f 69/74/71 72/73/70 68/69/67
f 68/69/67 75/75/72 74/72/69
f 72/73/70 73/52/50 78/46/44
f 75/75/72 72/73/70 77/77/74
f 74/72/69 76/76/73 4/3/3
f 75/75/72 15/59/57 76/76/73
f 77/77/74 78/46/44 63/56/54
f 15/59/57 77/77/74 63/56/54
f 4/3/3 14/63/61 1/1/1
f 80/78/75 13/49/47 81/81/78
f 13/49/47 21/48/46 81/81/78
f 80/78/75 20/82/79 23/79/76
f 81/81/78 22/80/77 19/83/80
f 17/108/104 2/98/94 83/88/85
f 18/90/83 17/108/104 83/88/85
f 83/88/85 84/97/93 86/94/90
f 82/85/82 18/86/83 85/89/86
f 83/88/85 86/94/90 85/89/86
f 86/94/90 100/93/89 85/89/86
f 83/88/85 2/98/94 84/97/93
f 84/97/93 26/92/88 86/94/90
f 23/79/76 87/87/84 99/91/87
f 88/11/11 89/15/15 28/16/16
f 6/13/13 90/96/92 89/15/15
f 28/16/16 91/95/91 27/99/95
f 6/13/13 25/68/66 26/92/88
f 90/96/92 6/13/13 26/92/88
f 90/96/92 84/97/93 91/95/91
f 91/95/91 84/97/93 2/98/94
f 92/67/65 96/104/100 95/100/96
f 94/66/64 24/65/63 97/101/97
f 16/103/99 94/66/64 98/102/98
f 16/103/99 85/89/86 96/104/100
f 95/100/96 100/93/89 26/92/88
f 98/102/98 97/101/97 99/91/87
f 85/89/86 98/102/98 99/91/87
f 97/101/97 24/65/63 23/79/76
f 9/34/32 28/16/16 27/99/95
f 10/109/101 9/34/32 102/107/103
f 102/107/103 9/34/32 27/99/95
f 10/109/101 102/107/103 17/108/104
f 103/106/102 104/84/81 22/80/77
f 17/108/104 27/99/95 2/98/94
f 10/105/101 18/86/83 104/84/81
