o Cube
v -2.000000 2.000000 2.000000
v -2.000000 -2.000000 -2.000000
v -2.000000 -2.000000 2.000000
v -2.000000 2.000000 -2.000000
v 2.000000 -2.000000 -2.000000
v 2.000000 2.000000 -2.000000
v 2.000000 -2.000000 2.000000
v 2.000000 2.000000 2.000000
vt 0.000000 0.829700
vt 0.503600 0.555900
vt 0.105100 0.331100
vt 0.499500 1.000000
vt 0.904400 0.336200
vt 1.000000 0.837100
vt 0.505700 0.000000
vt 0.499500 0.555200
vn -1.0000 0.0000 0.0000
vn 0.0000 0.0000 -1.0000
vn 1.0000 0.0000 0.0000
vn 0.0000 0.0000 1.0000
vn 0.0000 -1.0000 0.0000
vn 0.0000 1.0000 0.0000
usemtl textures/colors/m_red
s 1
f 1/1/1 2/2/1 3/3/1
f 4/4/2 5/5/2 2/2/2
f 6/6/3 7/7/3 5/5/3
f 8/8/4 3/3/4 7/7/4
f 5/5/5 3/3/5 2/2/5
f 4/4/6 8/8/6 6/6/6
f 1/1/1 4/4/1 2/2/1
f 4/4/2 6/6/2 5/5/2
f 6/6/3 8/8/3 7/7/3
f 8/8/4 1/1/4 3/3/4
f 5/5/5 7/7/5 3/3/5
f 4/4/6 1/1/6 8/8/6
