o Seg1
v -1.000000 0.000000 4.000000
v -1.000000 2.000000 4.000000
v -1.000000 0.000000 0.000000
v -1.000000 2.000000 -2.000000
v 1.000000 0.000000 4.000000
v 1.000000 2.000000 4.000000
v 1.000000 0.000000 0.000000
v 1.000000 2.000000 -2.000000
vn -1.0000 0.0000 0.0000
vn 1.0000 0.0000 0.0000
vn 0.0000 0.0000 1.0000
vn 0.0000 -1.0000 0.0000
vn 0.0000 1.0000 0.0000
usemtl textures/colors/m_green
s off
f 2//1 3//1 1//1
f 7//2 6//2 5//2
f 6//3 1//3 5//3
f 7//4 1//4 3//4
f 4//5 6//5 8//5
f 2//1 4//1 3//1
f 7//2 8//2 6//2
f 6//3 2//3 1//3
f 7//4 5//4 1//4
f 4//5 2//5 6//5
o Seg2
v -1.000000 -4.000000 0.000000
v -1.000000 0.000000 0.000000
v -1.000000 -4.000000 -2.000000
v -1.000000 2.000000 -2.000000
v 1.000000 -4.000000 0.000000
v 1.000000 0.000000 0.000000
v 1.000000 -4.000000 -2.000000
v 1.000000 2.000000 -2.000000
vn -1.0000 0.0000 0.0000
vn 0.0000 0.0000 -1.0000
vn 1.0000 0.0000 0.0000
vn 0.0000 0.0000 1.0000
vn 0.0000 -1.0000 0.0000
usemtl textures/colors/m_blue
s off
f 10//6 11//6 9//6
f 12//7 15//7 11//7
f 15//8 14//8 13//8
f 14//9 9//9 13//9
f 15//10 9//10 11//10
f 10//6 12//6 11//6
f 12//7 16//7 15//7
f 15//8 16//8 14//8
f 14//9 10//9 9//9
f 15//10 13//10 9//10
